<?xml version="1.0"?>
<svg xmlns="http://www.w3.org/2000/svg" xmlns:xlink="http://www.w3.org/1999/xlink" xmlns:svgjs="http://svgjs.com/svgjs" version="1.1" width="512" height="512" x="0" y="0" viewBox="0 0 512 512" style="enable-background:new 0 0 512 512" xml:space="preserve" class=""><g transform="matrix(1,0,0,1,0,65)"><path xmlns="http://www.w3.org/2000/svg" d="m378.742188 100.816406c-16.71875-59.585937-70.53125-100.816406-132.390626-100.816406-72.984374 0-132.886718 57.5-137.414062 129.882812-61.757812 7.34375-108.9375 60.054688-108.9375 123.675782 0 65.894531 51.195312 120.457031 116.554688 124.21875l.417968.023437 257.335938.308594c75.925781 0 137.691406-62.210937 137.691406-138.679687 0-74.949219-59.335938-136.203126-133.257812-138.613282zm-142.171876 146.828125c-5.4375 6.25-14.910156 6.914063-21.164062 1.476563l-9.65625-8.398438v55.078125c0 8.285157-6.714844 15-15 15s-15-6.714843-15-15v-55.078125l-9.65625 8.398438c-2.839844 2.472656-6.347656 3.683594-9.835938 3.683594-4.191406 0-8.359374-1.746094-11.328124-5.160157-5.433594-6.25-4.773438-15.722656 1.476562-21.160156l33.191406-28.859375c6.359375-5.53125 15.953125-5.527344 22.308594 0l33.1875 28.859375c6.25 5.433594 6.910156 14.90625 1.476562 21.160156zm128.773438 30.476563-33.1875 28.855468c-3.179688 2.765626-7.167969 4.148438-11.15625 4.148438s-7.976562-1.382812-11.15625-4.148438l-33.1875-28.855468c-6.25-5.4375-6.910156-14.910156-1.476562-21.164063 5.4375-6.25 14.910156-6.910156 21.164062-1.476562l9.65625 8.398437v-55.078125c0-8.285156 6.714844-15 15-15 8.28125 0 15 6.714844 15 15v55.078125l9.65625-8.394531c6.25-5.4375 15.726562-4.777344 21.160156 1.476563 5.4375 6.25 4.777344 15.722656-1.472656 21.160156zm0 0" fill="#ff8b38" data-original="#000000" style="" class=""/></g></svg>
