<?xml version="1.0"?>
<svg xmlns="http://www.w3.org/2000/svg" xmlns:xlink="http://www.w3.org/1999/xlink" xmlns:svgjs="http://svgjs.com/svgjs" version="1.1" width="512" height="512" x="0" y="0" viewBox="0 0 512 512" style="enable-background:new 0 0 512 512" xml:space="preserve" class=""><g>
<path xmlns="http://www.w3.org/2000/svg" style="" d="M258.743,146.286c-15.543,0-21.029,10.971-21.029,25.6v162.743C236.8,396.8,181.943,448,118.857,448  C54.857,448,0,395.886,0,332.8V256h82.286v75.886c0,14.629,16.457,24.686,32,24.686s32-9.143,32-24.686V167.314  C148.114,106.971,193.829,64,256,64c63.086,0,107.886,42.971,109.714,104.229v32.914L320,228.571l-36.571-27.429v-29.257  C283.429,157.257,274.286,146.286,258.743,146.286 M402.286,448c-64,0-118.857-52.114-118.857-114.286V256L320,283.429L365.714,256  v82.286c0,14.629,16.457,27.429,32,27.429c15.543,0,32-12.8,32-27.429V256H512v76.8C512,395.886,466.286,448,402.286,448" fill="#ffffff" data-original="#f1602e"/>
<g xmlns="http://www.w3.org/2000/svg">
</g>
<g xmlns="http://www.w3.org/2000/svg">
</g>
<g xmlns="http://www.w3.org/2000/svg">
</g>
<g xmlns="http://www.w3.org/2000/svg">
</g>
<g xmlns="http://www.w3.org/2000/svg">
</g>
<g xmlns="http://www.w3.org/2000/svg">
</g>
<g xmlns="http://www.w3.org/2000/svg">
</g>
<g xmlns="http://www.w3.org/2000/svg">
</g>
<g xmlns="http://www.w3.org/2000/svg">
</g>
<g xmlns="http://www.w3.org/2000/svg">
</g>
<g xmlns="http://www.w3.org/2000/svg">
</g>
<g xmlns="http://www.w3.org/2000/svg">
</g>
<g xmlns="http://www.w3.org/2000/svg">
</g>
<g xmlns="http://www.w3.org/2000/svg">
</g>
<g xmlns="http://www.w3.org/2000/svg">
</g>
</g></svg>
